<svg width="85" height="2" viewBox="0 0 85 2" fill="none" xmlns="http://www.w3.org/2000/svg">
<path d="M0.391254 0C0.0978128 0.181819 0 0.545454 0 1.09091C0 1.63636 0.097813 1.90909 0.489067 2C1.66283 1.90909 7.9229 1.81818 19.3671 1.63636C30.8113 1.54545 38.9298 1.45455 43.8205 1.45455C50.0806 1.45455 58.1991 1.54545 67.9804 1.63636C77.7618 1.81818 83.2394 1.90909 84.6088 2C84.9022 1.72727 85 1.36364 85 0.90909C85 0.454545 84.8044 0.181819 84.5109 0C83.2394 0.0909107 77.0771 0.181819 66.122 0.272729C55.1669 0.454548 47.733 0.454545 43.8205 0.454545C39.5167 0.454545 31.496 0.454548 19.7583 0.272729C8.02071 0.181819 1.56502 0.0909107 0.391254 0Z" fill="#D0A049"/>
</svg>
